<svg width="800" height="800" viewBox="0 0 800 800" fill="none" xmlns="http://www.w3.org/2000/svg">
<path d="M200 0C172.5 0 150 22.5 150 50V750C150 777.5 172.5 800 200 800H700C727.5 800 750 777.5 750 750V200L550 0H200Z" fill="#E2E5E7"/>
<path d="M600 200H750L550 0V150C550 177.5 572.5 200 600 200Z" fill="#B0B7BD"/>
<path d="M750 350L600 200H750V350Z" fill="#CAD1D8"/>
<path d="M650 650C650 663.75 638.75 675 625 675H75C61.25 675 50 663.75 50 650V400C50 386.25 61.25 375 75 375H625C638.75 375 650 386.25 650 400V650Z" fill="#F9A825"/>
<path d="M158.975 473.675C158.975 467.075 164.175 459.875 172.55 459.875H218.725C244.725 459.875 268.125 477.275 268.125 510.625C268.125 542.225 244.725 559.825 218.725 559.825H185.35V586.225C185.35 595.025 179.75 600 172.55 600C165.95 600 158.975 595.025 158.975 586.225V473.675ZM185.35 485.05V534.85H218.725C232.125 534.85 242.725 523.025 242.725 510.625C242.725 496.65 232.125 485.05 218.725 485.05H185.35Z" fill="white"/>
<path d="M307.275 600C300.675 600 293.475 596.4 293.475 587.625V474.075C293.475 466.9 300.675 461.675 307.275 461.675H353.05C444.4 461.675 442.4 600 354.85 600H307.275ZM319.875 486.075V575.625H353.05C407.025 575.625 409.425 486.075 353.05 486.075H319.875Z" fill="white"/>
<path d="M474.8 487.675V519.45H525.775C532.975 519.45 540.175 526.65 540.175 533.625C540.175 540.225 532.975 545.625 525.775 545.625H474.8V587.6C474.8 594.6 469.825 599.975 462.825 599.975C454.025 599.975 448.65 594.6 448.65 587.6V474.05C448.65 466.875 454.05 461.65 462.825 461.65H533C541.8 461.65 547 466.875 547 474.05C547 480.45 541.8 487.65 533 487.65H474.8V487.675Z" fill="white"/>
<path d="M625 675H150V700H625C638.75 700 650 688.75 650 675V650C650 663.75 638.75 675 625 675Z" fill="#CAD1D8"/>
</svg>
